<svg xmlns="http://www.w3.org/2000/svg" width="26.807" height="27.145"><g data-name="helmet icon" fill="none" stroke="#fff" stroke-miterlimit="10"><path data-name="Path 2" d="M25.407 8.692 14.652 7.8s-3.586-.89-4.483 1.781c-.9 3.562 2.69 5.342 2.69 5.342l13.448 5.344s0 2.671-2.69 6.233C13.755 21.158 2.1 19.377 2.1 19.377s-3.586-9.795 0-14.247a3.1 3.1 0 0 0-.893-1.781A20.129 20.129 0 0 1 13.755.678c7.173.89 11.652 8.014 11.652 8.014Z"/><path data-name="Path 3" d="M25.557 10.5a19.2 19.2 0 0 1 0 8"/><path data-name="Path 4" d="M4.307 23.3a42.842 42.842 0 0 1 10 3"/></g></svg>