<svg xmlns="http://www.w3.org/2000/svg" viewBox="0 0 75 42" width="75" height="42">
	<defs>
		<clipPath clipPathUnits="userSpaceOnUse" id="cp1">
			<path d="M0 0L58.25 0L58.25 41.01L0 41.01L0 0Z" />
		</clipPath>
	</defs>
	<style>
		tspan { white-space:pre }
		.shp0 { fill: #000000 } 
		.shp1 { fill: #ffffff } 
	</style>
	<g id="Group_19">
		<g id="Fill_1">
			<path id="Fill_1-2" class="shp0" d="M72.67 19.37L71.02 19.37L70.97 19.6L71.65 19.6L71.27 21.41L71.54 21.41L71.93 19.6L72.61 19.6L72.67 19.37Z" />
			<path id="Fill_1-3" class="shp1" d="M72.67 19.37L71.02 19.37L70.97 19.6L71.65 19.6L71.27 21.41L71.54 21.41L71.93 19.6L72.61 19.6L72.67 19.37Z" />
		</g>
		<g id="Fill_2">
			<path id="Fill_2-2" class="shp1" d="M74.55 19.37L73.54 21.13L73.54 21.13L73.27 19.37L72.89 19.37L72.46 21.41L72.72 21.41L73.08 19.63L73.08 19.63L73.35 21.41L73.61 21.41L74.65 19.63L74.66 19.63L74.24 21.41L74.5 21.41L74.93 19.37L74.55 19.37Z" />
			<path id="Fill_2-3" class="shp1" d="M74.55 19.37L73.54 21.13L73.54 21.13L73.27 19.37L72.89 19.37L72.46 21.41L72.72 21.41L73.08 19.63L73.08 19.63L73.35 21.41L73.61 21.41L74.65 19.63L74.66 19.63L74.24 21.41L74.5 21.41L74.93 19.37L74.55 19.37Z" />
		</g>
		<g id="Group_18">
			<g id="Group_5">
				<g id="Clip-Path: Group_5-2" clip-path="url(#cp1)">
					<g id="Group_5-2">
						<path id="Fill_3" class="shp1" d="M30.95 17.46L40.35 17.46C40.75 17.42 41.14 17.34 41.52 17.21C41.9 17.08 42.26 16.9 42.6 16.68C42.93 16.46 43.24 16.21 43.51 15.91C43.78 15.62 44.02 15.3 44.22 14.95L48.73 6.3L53.56 6.3C53.77 6.28 53.98 6.24 54.18 6.17C54.38 6.1 54.57 6 54.75 5.89C54.93 5.77 55.09 5.63 55.23 5.48C55.38 5.32 55.5 5.15 55.61 4.97L58.25 0.04L53.32 0.04C53.11 0.06 52.9 0.1 52.7 0.17C52.5 0.24 52.31 0.34 52.13 0.45C51.95 0.57 51.79 0.7 51.65 0.86C51.5 1.01 51.38 1.18 51.27 1.37L48.67 6.23L39.34 6.23C38.94 6.27 38.55 6.36 38.17 6.49C37.8 6.62 37.44 6.8 37.1 7.01C36.77 7.23 36.46 7.49 36.18 7.78C35.91 8.07 35.68 8.4 35.48 8.75L30.93 17.46L17.33 17.46L26.57 0L12.79 0C12.23 0.05 11.67 0.17 11.14 0.36C10.6 0.55 10.09 0.8 9.62 1.11C9.14 1.41 8.71 1.78 8.32 2.19C7.94 2.61 7.6 3.07 7.33 3.56L0 17.46L17.33 17.46L10.06 31.05L23.68 31.05L18.33 41.01L26.03 41.01C26.33 40.98 26.62 40.92 26.89 40.82C27.17 40.73 27.44 40.6 27.68 40.44C27.93 40.28 28.15 40.09 28.36 39.87C28.56 39.66 28.73 39.42 28.87 39.16L33.23 31.04L23.68 31.04L30.95 17.46Z" />
					</g>
				</g>
			</g>
			<path id="Fill_6" class="shp1" d="M38.39 19.43L34.92 19.43C34.46 19.38 33.99 19.4 33.53 19.51C33.08 19.61 32.65 19.79 32.25 20.03C31.86 20.28 31.51 20.59 31.22 20.95C30.92 21.31 30.69 21.72 30.54 22.16L26.86 29.08L28.17 29.08C28.33 29.07 28.48 29.03 28.63 28.98C28.78 28.93 28.92 28.86 29.05 28.78C29.18 28.69 29.3 28.59 29.41 28.47C29.51 28.36 29.61 28.23 29.68 28.09L31.71 24.28L32.84 22.16C32.89 22.07 32.94 22 33 21.93C33.07 21.86 33.14 21.8 33.22 21.75C33.3 21.7 33.38 21.66 33.47 21.63C33.56 21.59 33.65 21.57 33.74 21.57C34.04 21.57 34.17 21.79 34.05 22.07C34.05 22.08 34.05 22.08 34.04 22.09C34.04 22.1 34.04 22.11 34.03 22.11C34.03 22.12 34.03 22.13 34.02 22.13C34.02 22.14 34.02 22.15 34.02 22.16L32.89 24.28L30.34 29.08L31.66 29.08C31.72 29.08 31.78 29.07 31.84 29.06C31.9 29.05 31.96 29.04 32.02 29.02C32.08 29.01 32.13 28.99 32.19 28.96C32.25 28.94 32.3 28.91 32.36 28.88C32.44 28.84 32.52 28.79 32.6 28.73C32.68 28.67 32.75 28.61 32.82 28.54C32.89 28.48 32.95 28.41 33.01 28.33C33.07 28.26 33.12 28.18 33.17 28.09L35.19 24.28L36.27 22.25L36.31 22.16C36.36 22.07 36.41 22 36.48 21.93C36.54 21.86 36.61 21.8 36.69 21.75C36.77 21.7 36.85 21.66 36.94 21.63C37.03 21.6 37.12 21.58 37.21 21.57C37.54 21.57 37.66 21.83 37.49 22.16L36.36 24.28L33.81 29.08L35.13 29.08C35.28 29.07 35.44 29.03 35.58 28.98C35.73 28.93 35.87 28.86 36 28.78C36.13 28.69 36.25 28.59 36.36 28.47C36.47 28.36 36.56 28.23 36.64 28.09L39.79 22.16C40.83 20.21 39.72 19.43 38.39 19.43Z" />
			<path id="Fill_8" fill-rule="evenodd" class="shp1" d="M39.16 29.28C39 29.26 38.85 29.21 38.71 29.15C38.56 29.09 38.43 29 38.3 28.9C38.18 28.81 38.07 28.69 37.98 28.57C37.92 28.44 37.87 28.31 37.84 28.17C37.81 28.03 37.8 27.89 37.81 27.75C37.81 27.61 37.84 27.47 37.88 27.33C37.93 27.2 37.99 27.07 38.07 26.95L40.85 21.72C41.07 21.38 41.33 21.06 41.62 20.78C41.91 20.5 42.24 20.25 42.59 20.05C42.94 19.85 43.32 19.69 43.71 19.57C44.1 19.46 44.5 19.4 44.91 19.38C45.07 19.36 45.22 19.37 45.38 19.39C45.54 19.42 45.69 19.46 45.83 19.53C45.98 19.59 46.11 19.67 46.23 19.77C46.36 19.87 46.47 19.99 46.56 20.11C46.62 20.24 46.67 20.37 46.7 20.51C46.73 20.65 46.74 20.79 46.73 20.93C46.72 21.07 46.7 21.21 46.65 21.35C46.61 21.48 46.55 21.61 46.47 21.73L46.45 21.77L43.7 26.91L43.68 26.95C43.47 27.29 43.21 27.61 42.92 27.89C42.63 28.18 42.3 28.42 41.95 28.63C41.59 28.83 41.22 28.99 40.83 29.1C40.44 29.22 40.03 29.28 39.63 29.3C39.47 29.31 39.31 29.31 39.16 29.28ZM43.89 21.48C43.8 21.49 43.71 21.51 43.62 21.54C43.53 21.57 43.45 21.61 43.37 21.66C43.29 21.71 43.22 21.77 43.15 21.84C43.09 21.91 43.04 21.98 42.99 22.06L40.56 26.62C40.54 26.65 40.53 26.68 40.51 26.72C40.5 26.76 40.49 26.79 40.49 26.83C40.49 26.87 40.49 26.91 40.5 26.95C40.5 26.98 40.51 27.02 40.53 27.05C40.55 27.08 40.57 27.1 40.59 27.12C40.61 27.14 40.64 27.16 40.66 27.17C40.69 27.18 40.72 27.19 40.75 27.2C40.78 27.2 40.81 27.2 40.84 27.2C40.93 27.19 41.02 27.17 41.11 27.14C41.2 27.11 41.28 27.07 41.36 27.02C41.44 26.97 41.51 26.91 41.57 26.84C41.63 26.77 41.69 26.7 41.73 26.62L44.17 22.06C44.19 22.03 44.2 22 44.22 21.96C44.23 21.92 44.24 21.89 44.24 21.85C44.24 21.81 44.24 21.77 44.24 21.73C44.23 21.7 44.22 21.66 44.2 21.62C44.19 21.6 44.17 21.58 44.14 21.56C44.12 21.54 44.09 21.52 44.07 21.51C44.04 21.5 44.01 21.49 43.98 21.48C43.95 21.48 43.92 21.48 43.89 21.48Z" />
			<path id="Fill_10" fill-rule="evenodd" class="shp1" d="M49.77 29.28C49.62 29.26 49.46 29.21 49.32 29.15C49.18 29.09 49.04 29 48.92 28.9C48.8 28.8 48.69 28.69 48.59 28.56C48.53 28.44 48.48 28.3 48.45 28.17C48.43 28.03 48.41 27.89 48.42 27.75C48.43 27.6 48.46 27.46 48.5 27.33C48.54 27.2 48.61 27.07 48.68 26.95L51.47 21.72C51.69 21.38 51.94 21.06 52.24 20.78C52.53 20.5 52.85 20.25 53.21 20.05C53.56 19.85 53.93 19.69 54.32 19.57C54.72 19.46 55.12 19.4 55.52 19.38C55.68 19.36 55.84 19.37 56 19.39C56.15 19.42 56.3 19.46 56.45 19.53C56.59 19.59 56.73 19.67 56.85 19.77C56.97 19.87 57.08 19.99 57.17 20.11C57.24 20.24 57.29 20.37 57.31 20.51C57.34 20.65 57.35 20.79 57.35 20.93C57.34 21.07 57.31 21.21 57.27 21.35C57.22 21.48 57.16 21.61 57.09 21.73L57.06 21.77L54.32 26.91L54.3 26.95C54.08 27.29 53.83 27.61 53.53 27.89C53.24 28.18 52.91 28.42 52.56 28.63C52.21 28.83 51.83 28.99 51.44 29.1C51.05 29.22 50.65 29.28 50.24 29.3C50.09 29.31 49.93 29.31 49.77 29.28ZM54.14 21.54C54.05 21.57 53.96 21.61 53.89 21.66C53.81 21.71 53.74 21.77 53.67 21.84C53.61 21.91 53.55 21.98 53.51 22.06L51.08 26.62C51.06 26.65 51.05 26.68 51.03 26.72C51.02 26.76 51.01 26.79 51.01 26.83C51.01 26.87 51.01 26.91 51.01 26.95C51.02 26.98 51.03 27.02 51.05 27.05C51.07 27.08 51.09 27.1 51.11 27.12C51.13 27.14 51.16 27.16 51.18 27.17C51.21 27.18 51.24 27.19 51.27 27.2C51.3 27.2 51.33 27.2 51.36 27.2C51.45 27.19 51.54 27.17 51.63 27.14C51.72 27.11 51.8 27.07 51.88 27.02C51.96 26.97 52.03 26.91 52.09 26.84C52.16 26.77 52.21 26.7 52.26 26.62L54.69 22.06C54.71 22.03 54.73 22 54.74 21.96C54.75 21.92 54.76 21.89 54.76 21.85C54.76 21.81 54.76 21.77 54.75 21.73C54.75 21.7 54.73 21.66 54.72 21.62C54.7 21.6 54.68 21.58 54.66 21.56C54.64 21.54 54.61 21.52 54.58 21.51C54.56 21.5 54.53 21.49 54.5 21.48C54.47 21.48 54.44 21.48 54.41 21.48C54.32 21.49 54.22 21.51 54.14 21.54Z" />
			<path id="Fill_12" class="shp1" d="M46.92 26.71L49.54 21.79L50.86 21.79L52 19.66L50.67 19.66L51.7 17.71L50.42 17.71C50.27 17.73 50.11 17.76 49.97 17.81C49.82 17.86 49.68 17.93 49.55 18.02C49.42 18.1 49.3 18.2 49.19 18.31C49.09 18.43 49 18.55 48.92 18.69L44.53 26.96C43.84 28.26 44.57 29.3 46.12 29.3C46.19 29.3 46.27 29.29 46.35 29.28C46.43 29.28 46.5 29.27 46.58 29.25C46.66 29.24 46.74 29.23 46.81 29.21C46.89 29.19 46.96 29.17 47.04 29.14L48.09 27.16C48.03 27.19 47.96 27.21 47.9 27.23C47.83 27.25 47.77 27.27 47.7 27.28C47.63 27.29 47.56 27.3 47.49 27.3C47.42 27.3 47.35 27.3 47.29 27.29C46.97 27.27 46.75 27.03 46.92 26.71" />
			<path id="Fill_14" fill-rule="evenodd" class="shp1" d="M60.47 29.09L63.27 23.81L64.12 22.21C65.41 19.7 66.99 19.36 68.51 19.36C68.66 19.33 68.82 19.33 68.97 19.35C69.12 19.37 69.27 19.41 69.41 19.47C69.56 19.53 69.69 19.6 69.81 19.7C69.94 19.79 70.04 19.9 70.14 20.02C70.21 20.2 70.26 20.39 70.28 20.58C70.3 20.77 70.3 20.96 70.28 21.16C70.25 21.35 70.2 21.53 70.13 21.71C70.06 21.89 69.97 22.06 69.85 22.22L69.79 22.33L69.06 23.72L69.01 23.81C68.79 24.16 68.53 24.48 68.23 24.77C67.93 25.05 67.6 25.3 67.24 25.51C66.88 25.72 66.5 25.88 66.1 25.99C65.7 26.1 65.29 26.17 64.88 26.18C64.83 26.18 64.79 26.18 64.74 26.18C64.69 26.18 64.65 26.18 64.6 26.17C64.55 26.17 64.51 26.16 64.46 26.16C64.42 26.15 64.37 26.14 64.32 26.13L63.27 28.11C63.19 28.25 63.1 28.37 63 28.49C62.89 28.6 62.77 28.7 62.64 28.79C62.51 28.87 62.37 28.94 62.23 28.99C62.08 29.04 61.93 29.07 61.77 29.09L60.47 29.09ZM67.12 21.52C67.03 21.56 66.95 21.6 66.87 21.65C66.79 21.7 66.72 21.76 66.66 21.83C66.6 21.89 66.54 21.97 66.5 22.05L66.39 22.24L65.41 24.08L65.8 24.08C65.92 24.07 66.05 24.05 66.16 24C66.28 23.96 66.39 23.91 66.5 23.84C66.6 23.77 66.7 23.69 66.78 23.6C66.87 23.51 66.94 23.41 67 23.3L67.67 22.05C67.69 22.02 67.71 21.98 67.72 21.95C67.73 21.91 67.74 21.87 67.74 21.84C67.75 21.8 67.74 21.76 67.74 21.72C67.73 21.68 67.72 21.65 67.7 21.61C67.69 21.59 67.67 21.56 67.64 21.55C67.62 21.53 67.59 21.51 67.57 21.5C67.54 21.48 67.51 21.47 67.48 21.47C67.45 21.46 67.42 21.46 67.39 21.47C67.3 21.47 67.21 21.49 67.12 21.52Z" />
			<path id="Fill_16" class="shp1" d="M60.8 26.91L62.33 24.04L59.55 24.04L58.65 25.72L59.21 25.72L58.91 26.29C58.57 26.99 58.16 27.2 57.84 27.2C57.52 27.2 57.4 26.94 57.57 26.62L57.77 26.24L60 22.04C60.05 21.96 60.1 21.88 60.17 21.81C60.23 21.75 60.3 21.69 60.38 21.64C60.46 21.59 60.54 21.54 60.63 21.51C60.72 21.48 60.81 21.46 60.9 21.46C61.23 21.46 61.35 21.72 61.18 22.04L60.5 23.29L62.73 23.29L63.55 21.74L63.57 21.71C64.26 20.41 63.57 19.36 62.02 19.36C61.61 19.37 61.21 19.44 60.81 19.55C60.42 19.66 60.05 19.82 59.7 20.02C59.34 20.23 59.02 20.47 58.72 20.76C58.43 21.04 58.17 21.36 57.96 21.7L55.54 26.24L55.17 26.95C54.48 28.25 55.18 29.3 56.73 29.3C57.14 29.28 57.54 29.22 57.93 29.1C58.32 28.99 58.7 28.83 59.05 28.63C59.4 28.42 59.73 28.18 60.02 27.89C60.31 27.61 60.57 27.29 60.79 26.95L60.8 26.91Z" />
		</g>
	</g>
</svg>