<svg version="1.1" id="LOGOSTORE_WHITE" xmlns="http://www.w3.org/2000/svg" xmlns:xlink="http://www.w3.org/1999/xlink" x="0" y="0" viewBox="-224 394.2 307 35.7" style="enable-background:new -224 394.2 307 35.7" xml:space="preserve"><style>.st0{fill:none}.st4{fill:#c80502}</style><path id="Store_logo_color_background" class="st0" d="M-224 411.9h146v18h-146z"/><g id="Group_29" transform="translate(0 .562)"><g id="Group_3" transform="translate(0 .152)"><path id="Clip_2-2" class="st0" d="M-224 393.5h38.2v34.7H-224v-34.7z"/><defs><path id="SVGID_1_" d="M-224 393.5h38.2v34.7H-224z"/></defs><clipPath id="SVGID_2_"><use xlink:href="#SVGID_1_" style="overflow:visible"/></clipPath><g id="Group_3-2" style="clip-path:url(#SVGID_2_)"><path id="Fill_1" d="m-193 428.2-2.9-22.2-5.5 18.3h-7.4l-5.3-18.1-2.8 22h-7.1l4.7-32.4c.2-1.5 1.2-2.3 3.1-2.3h3.1c.7 0 1.4.1 2 .5.5.4.9 1 1.1 1.7l5.1 19.8 5.3-19.8c.1-.7.5-1.3 1.1-1.7.6-.4 1.3-.6 2.1-.5h3.1c1.9 0 2.9.8 3.1 2.3l4.6 32.4h-7.4z"/></g></g><path id="Fill_4" d="M-172 428.6c-2.8.2-5.6-.7-7.8-2.6-1.9-1.9-2.9-4.6-2.7-7.3v-7.9c-.2-2.7.8-5.4 2.7-7.3 2.2-1.8 5-2.8 7.8-2.6 2.8-.2 5.6.7 7.8 2.5 1.9 2 2.9 4.6 2.7 7.4v7.9c.2 2.7-.8 5.4-2.7 7.3-2.1 1.9-4.9 2.8-7.8 2.6zm0-22.1c-1 0-2 .3-2.7 1-.7 1.1-1 2.5-.8 3.8v6.9c-.1 1.3.2 2.7.8 3.8.7.7 1.7 1 2.7 1 1 .1 1.9-.3 2.6-1 .7-1.1 1.1-2.5.9-3.8v-6.9c.2-1.3-.2-2.7-.9-3.8-.6-.7-1.6-1-2.6-1z"/><path id="Fill_6" d="M-154.3 427c-1.3-1.4-1.9-3.3-1.7-5.2v-15.7h-4.1v-4.9h4.1v-6.3h6.9v6.3h5.5l-1.1 4.9h-4.5v14.5c-.1.6.1 1.3.5 1.8.4.4 1 .6 1.5.5h3.4l-1.1 5.7h-4.1c-1.7.2-3.7-.4-5.3-1.6"/><path id="Fill_8" d="M-130.4 428.6c-2.8.2-5.6-.7-7.8-2.6-1.9-1.9-2.9-4.6-2.7-7.3v-7.9c-.2-2.7.8-5.4 2.7-7.3 2.2-1.8 5-2.8 7.8-2.6 2.8-.2 5.6.7 7.8 2.5 1.9 2 2.9 4.6 2.7 7.4v7.9c.2 2.7-.8 5.4-2.7 7.3-2.2 1.9-5 2.8-7.8 2.6zm0-22.1c-1 0-2 .3-2.7 1-.7 1.1-1 2.5-.8 3.8v6.9c-.1 1.3.2 2.7.8 3.8.7.7 1.7 1 2.7 1 1 .1 1.9-.3 2.6-1 .7-1.1 1.1-2.5.9-3.8v-6.9c.2-1.3-.2-2.7-.9-3.8-.7-.7-1.6-1-2.6-1z"/><g id="Group_12" transform="translate(50.946)"><path id="Clip_11-2" class="st0" d="M-167.7 393.3h24.7v35.3h-24.7v-35.3z"/><defs><path id="SVGID_3_" d="M-167.7 393.3h24.7v35.3h-24.7z"/></defs><clipPath id="SVGID_4_"><use xlink:href="#SVGID_3_" style="overflow:visible"/></clipPath><g id="Group_12-2" style="clip-path:url(#SVGID_4_)"><path id="Fill_10" d="M-142.9 410.3v6.6c.2 3.2-.9 6.4-3.1 8.8-2.5 2.1-5.8 3.2-9.1 3-1.9 0-3.7-.3-5.5-.8-1.5-.5-2.9-1.3-4-2.4-2.2-2.4-3.3-5.6-3.1-8.8v-11.2c0-4.6 1.5-7.9 4.4-9.9 2.4-1.5 5.3-2.3 8.2-2.1 3.2-.2 6.5.8 8.9 2.9 2.2 2.4 3.3 5.5 3 8.8v.6h-7.3v-.5c.1-1.5-.2-3-1.1-4.2-.9-.9-2.2-1.4-3.6-1.2-.7 0-1.4.1-2.1.3-.6.2-1.1.5-1.6.9s-.9 1-1.1 1.7c-.3.9-.4 1.8-.4 2.7v11.3c-.2 1.5.3 3 1.4 4.2 1 1 2.4 1.5 3.8 1.4 1.4.1 2.7-.4 3.7-1.3.9-1.2 1.3-2.6 1.2-4.1v-.6h-4.7l1.1-6 11-.1z"/></g></g><path id="Fill_13" d="M-87.8 415.7c-.1-1.5.4-3 1.4-4.1 1.2-1 2.7-1.5 4.2-1.4h4.7c1.6.2 3.2-.2 4.5-1.1.9-1.2 1.4-2.6 1.2-4.1.1-1.1-.2-2.2-.6-3.2-.4-.7-1.1-1.2-1.9-1.5-1.1-.3-2.3-.4-3.5-.4h-2.8v5.8h-7.3v-12h10.3c3.6-.3 7.1.7 10 2.7 2.3 2.3 3.4 5.4 3.2 8.6.1 2.3-.4 4.5-1.3 6.6-.9 1.7-2.5 2.9-4.3 3.6-2.5.8-5.1 1.2-7.8 1.1h-1.5c-.4 0-.8.1-1 .5-.2.4-.4.8-.3 1.2v10.3h-7.3v-12.6z"/><path id="Fill_15" d="M-55 399.3h-1.9l.6-4.9c0-.4.4-.8.8-.8h.7c.4-.1.8.2.9.6l.3 1h.2l.3-1c.1-.4.5-.7.9-.6h.7c.4 0 .8.3.8.7l.6 4.9H-52l-.2-2.7h-.2l-.5 1.7H-54l-.5-1.7h-.2c-.1.1-.3 2.8-.3 2.8zm-3.3 0h-1.9v-3.9h-1.5v-1.8h4.9l-.3 1.8h-1.2v3.9z"/><g id="Group_19" transform="translate(85.011)"><path id="Clip_18-2" class="st0" d="M-130 393.3h23.6v35.3H-130v-35.3z"/><defs><path id="SVGID_5_" d="M-130 393.3h23.6v35.3H-130z"/></defs><clipPath id="SVGID_6_"><use xlink:href="#SVGID_5_" style="overflow:visible"/></clipPath><g id="Group_19-2" style="clip-path:url(#SVGID_6_)"><path id="Fill_17" class="st4" d="M-126.8 425.9c-2.1-2-3.3-4.8-3.1-7.7v-1.3h7.7v.9c-.1 1.2.3 2.5 1 3.5.8.8 2 1.2 3.1 1.1 1 .1 2.1-.3 2.8-1 .7-.6 1-1.5 1-2.5.1-.9-.2-1.7-.8-2.4-.9-.7-2-1.3-3.1-1.7l-2.9-1.1c-1.6-.6-3.1-1.3-4.6-2.1-1.3-.8-2.3-1.8-3.1-3.1-.9-1.6-1.3-3.3-1.2-5.1-.1-1.9.5-3.8 1.5-5.4 1-1.5 2.4-2.7 4-3.5 1.8-.8 3.8-1.2 5.7-1.2 3.1-.2 6.1.8 8.4 2.9 2.1 2.2 3.2 5.2 3 8.2v.5h-7.7v-.9c.1-1.2-.2-2.4-.9-3.3-.7-.8-1.7-1.2-2.7-1.2-.9-.1-1.8.3-2.4.9-.6.6-.9 1.4-.9 2.3-.1 1.2.5 2.3 1.4 3 1.4.9 2.9 1.6 4.4 2.1l1.1.4c2.4.8 4.5 2 6.4 3.6 1.7 1.6 2.6 3.9 2.4 6.3 0 1.8-.4 3.6-1.3 5.2s-2.3 3-4 3.8c-2 1-4.2 1.5-6.5 1.4-3.2.3-6.3-.7-8.7-2.6"/></g></g><path id="Fill_20" class="st4" d="M3.7 399.9H-4v28.4h-7.3v-28.4h-8.6v-6.2H4.7l-1 6.2z"/><path id="Fill_22" class="st4" d="M19.4 428.6c-3.3.3-6.5-.8-9-2.9-2.4-2.4-3.7-5.7-3.5-9.2v-11.2c0-1.8.3-3.7.9-5.4.6-1.5 1.6-2.9 2.8-4 1.1-.9 2.3-1.6 3.7-2 1.7-.5 3.4-.7 5.1-.7 3.1-.2 6.2.7 8.7 2.6 2.6 2.4 4 5.9 3.7 9.4v11.2c0 1.9-.3 3.7-.9 5.5-.6 1.5-1.6 2.9-2.8 3.9-1.1.9-2.4 1.6-3.7 2-1.6.6-3.3.9-5 .8zm0-28.8c-.8 0-1.5.1-2.3.3-.6.2-1.2.6-1.6 1.1-1 1.2-1.4 2.7-1.3 4.2v11.3c0 .9.1 1.8.4 2.6.2.7.5 1.3 1.1 1.7.5.4 1 .7 1.6.9.7.2 1.4.3 2.2.3 1.2.1 2.3-.3 3.3-.9.6-.4 1.1-1.1 1.4-1.8.3-.9.5-1.9.5-2.9v-11.3c.1-1.5-.4-3.1-1.4-4.2-1.1-.9-2.5-1.4-3.9-1.3z"/><path id="Fill_24" class="st4" d="M57.6 411.3c-1.1 1.7-2.9 3-4.8 3.5l6.3 13.6H51l-5.3-12.7h-1.9c-.3 0-.5.3-.5.9v11.8H36V415c-.1-1.5.4-3 1.5-4.1 1.2-1 2.7-1.5 4.2-1.4H46c1.5.1 3.1-.2 4.4-1.1 1-1 1.4-2.4 1.3-3.7.2-1.4-.3-2.8-1.4-3.7-1.4-.8-3-1.1-4.6-1h-2.5v5.1H36v-11.4h10c4.7 0 8 .9 10.1 2.6 2.3 2.2 3.4 5.3 3.1 8.4.1 2.3-.5 4.6-1.6 6.6"/><g id="Group_28" transform="translate(136.232 .152)"><path id="Clip_27-2" class="st0" d="M-73.4 393.5h20.2v34.7h-20.2v-34.7z"/><defs><path id="SVGID_7_" d="M-73.4 393.5h20.2v34.7h-20.2z"/></defs><clipPath id="SVGID_8_"><use xlink:href="#SVGID_7_" style="overflow:visible"/></clipPath><g id="Group_28-2" style="clip-path:url(#SVGID_8_)"><path id="Fill_26" class="st4" d="M-65.5 421.3c.6.5 1.3.7 2.1.7h10.2v6.2h-11.6c-2.3.2-4.7-.6-6.4-2.1-1.5-1.8-2.3-4.2-2.1-6.6v-26h20.2l-1.1 6.3H-66v7.8h11.8v6.2H-66v5.3c-.2.7 0 1.5.5 2.2"/></g></g></g></svg>